<svg xmlns="http://www.w3.org/2000/svg" width="262" height="244" viewBox="0 0 262 244" fill="none"><g clip-path="url(#clip0_10638_25008)"><path fill-rule="evenodd" clip-rule="evenodd" d="M101.111 99.158C100.632 98.9211 99.986 98.742 99.3655 98.7774C98.1387 98.8518 83.8657 104.222 83.8657 104.222C83.8657 104.222 80.9522 100.449 78.6144 99.1174C78.4459 99.021 78.2772 98.931 78.1138 98.8503C76.0306 97.8205 74.4611 98.058 74.0417 98.4892C73.5895 98.9528 73.3895 100.737 74.7834 103.029C76.1733 105.316 80.0294 108.131 80.0294 108.131C80.0294 108.131 80.023 108.143 80.0178 108.161C80.0126 108.171 80.0102 108.189 80.0024 108.205C79.9947 108.227 79.9857 108.246 79.975 108.273C79.9699 108.283 79.9673 108.289 79.966 108.298C79.9519 108.346 79.93 108.404 79.9056 108.473C79.9005 108.484 79.9006 108.49 79.8953 108.501C79.8722 108.568 79.8504 108.638 79.822 108.716C79.8144 108.738 79.8054 108.762 79.7938 108.786C79.7268 108.975 79.6485 109.2 79.5594 109.459L79.5581 109.461C79.5197 109.572 79.4797 109.686 79.4347 109.811C79.4129 109.875 79.3872 109.947 79.3614 110.019C79.3241 110.127 79.2882 110.24 79.248 110.347C79.2287 110.4 79.2134 110.45 79.1927 110.499C79.1644 110.583 79.1348 110.663 79.1052 110.749C79.0192 111.003 78.928 111.267 78.8286 111.547C78.7952 111.641 78.7669 111.738 78.7335 111.833C78.682 111.977 78.6345 112.113 78.5805 112.262C78.5664 112.31 78.5484 112.353 78.533 112.404C78.5214 112.435 78.5122 112.466 78.5019 112.493C78.3887 112.815 78.273 113.149 78.161 113.488C78.1456 113.539 78.1263 113.591 78.1109 113.642C77.6416 115.01 77.1463 116.475 76.685 117.86C76.644 117.983 76.6015 118.102 76.5618 118.229C76.5229 118.34 76.4909 118.451 76.4524 118.562C76.4304 118.62 76.4164 118.668 76.3958 118.73C76.3611 118.834 76.329 118.938 76.2956 119.039C76.2751 119.101 76.257 119.163 76.2351 119.221C76.1991 119.327 76.1671 119.431 76.135 119.536C76.0722 119.73 76.0091 119.917 75.9498 120.103C75.9385 120.152 75.9243 120.194 75.9115 120.24C75.8652 120.38 75.8217 120.521 75.7753 120.655L75.737 120.786C75.6276 121.126 75.5289 121.445 75.439 121.746L75.3967 121.878C75.3712 121.983 75.3378 122.084 75.311 122.178C75.2981 122.217 75.2853 122.263 75.2725 122.302C75.2354 122.431 75.1992 122.556 75.1687 122.671C75.0266 123.178 74.9437 123.537 74.9368 123.69C74.9312 123.815 74.9361 123.938 74.9513 124.066C74.9502 124.081 74.9542 124.1 74.9557 124.117C74.9681 124.237 74.9875 124.351 75.0118 124.467C75.0186 124.493 75.0227 124.511 75.0294 124.531C75.058 124.646 75.0861 124.755 75.1248 124.868C75.1277 124.882 75.1369 124.897 75.1436 124.917C75.1798 125.029 75.2214 125.137 75.268 125.242C75.36 125.44 75.4637 125.622 75.5644 125.763C75.5762 125.779 75.5842 125.796 75.5974 125.809C75.6227 125.844 75.6452 125.878 75.6755 125.909C75.6888 125.922 75.6981 125.937 75.7113 125.95C75.7366 125.978 75.7641 126.002 75.7879 126.027C75.7985 126.038 75.8131 126.049 75.8224 126.057C75.8554 126.083 75.8855 126.101 75.9172 126.117C75.9753 126.145 76.0276 126.152 76.0735 126.132C76.0774 126.131 76.0918 126.121 76.1009 126.11C76.1153 126.101 76.1296 126.085 76.1479 126.061L76.1517 126.053C76.1701 126.036 76.1883 126.013 76.2143 125.98C76.2609 125.918 76.3194 125.84 76.3858 125.745C76.4156 125.705 76.4534 125.655 76.4924 125.603C76.4963 125.595 76.5028 125.588 76.5054 125.583C76.5444 125.531 76.5809 125.477 76.6185 125.421L76.6212 125.415C76.7057 125.298 76.7976 125.157 76.9029 125.011C76.9082 125 76.9159 124.991 76.9185 124.986C76.9627 124.923 77.0069 124.86 77.055 124.79C77.0641 124.778 77.072 124.762 77.0823 124.748C77.2448 124.512 77.4212 124.254 77.6057 123.967C77.6213 123.955 77.6292 123.94 77.6395 123.925C77.6929 123.844 77.7474 123.767 77.7968 123.687C77.8137 123.666 77.8254 123.649 77.8398 123.627C77.8953 123.54 77.9512 123.46 78.0083 123.371C78.0188 123.357 78.0252 123.344 78.037 123.327C78.1747 123.121 78.3175 122.905 78.468 122.68C78.4707 122.675 78.4733 122.669 78.481 122.667C78.5473 122.566 78.6136 122.465 78.6824 122.359C78.6955 122.339 78.7097 122.317 78.7187 122.299C78.7759 122.21 78.8357 122.122 78.8928 122.033C78.911 122.003 78.9291 121.973 78.9501 121.95C79.0215 121.839 79.0953 121.729 79.1668 121.618C79.1745 121.602 79.1823 121.593 79.1887 121.58C79.2563 121.476 79.3238 121.373 79.398 121.263C79.4148 121.236 79.4357 121.207 79.4551 121.174C79.5057 121.098 79.5499 121.029 79.6005 120.953L79.7069 120.79C79.7524 120.718 79.7964 120.649 79.8446 120.585C79.8732 120.54 79.8978 120.497 79.9291 120.454C80.0005 120.343 80.0731 120.229 80.1473 120.119C80.1642 120.091 80.1811 120.07 80.1966 120.045C80.2538 119.956 80.3172 119.867 80.373 119.774C80.4107 119.718 80.4433 119.665 80.4783 119.614C80.5173 119.549 80.5615 119.486 80.6044 119.419C80.6329 119.375 80.6589 119.329 80.6874 119.291C80.9171 118.939 81.1444 118.585 81.3664 118.242C81.3977 118.199 81.4288 118.149 81.4588 118.102C81.5831 117.903 81.7131 117.706 81.8377 117.514C81.8598 117.476 81.878 117.446 81.9053 117.411C83.4803 114.974 84.7591 112.984 84.7591 112.984L93.5217 119.882C93.5217 119.882 93.5076 119.937 93.4873 120.038L93.4834 120.046C93.2471 120.942 92.1344 125.308 92.2322 126.17C92.3235 127.014 92.6017 127.764 92.8913 127.907C92.9335 127.928 92.9757 127.935 93.0148 127.929C93.3439 127.886 96.5262 122.019 96.5262 122.019C96.5262 122.019 98.0322 123.216 99.1384 123.763C99.6257 124.004 100.037 124.119 100.204 123.947C100.762 123.396 98.1892 120.339 98.1892 120.339C98.1892 120.339 104.005 117.154 104.041 116.703C104.053 116.52 103.923 116.377 103.699 116.267C103.37 116.104 102.834 116.008 102.255 115.96C102.206 115.959 102.14 115.959 102.071 115.96C101.986 115.967 101.889 115.971 101.785 115.988C100.818 116.113 98.9228 116.593 97.5618 116.96C97.5539 116.956 97.5526 116.959 97.55 116.957C97.4047 116.999 97.2632 117.034 97.1336 117.071C97.1243 117.069 97.1179 117.076 97.1087 117.075C96.9817 117.113 96.8597 117.147 96.7472 117.176C96.7432 117.177 96.734 117.176 96.7301 117.177C96.6201 117.208 96.5165 117.238 96.4328 117.262C96.4262 117.262 96.4184 117.264 96.4131 117.268C96.3318 117.293 96.2586 117.309 96.1995 117.329C96.1799 117.335 96.1655 117.338 96.1471 117.342C96.109 117.353 96.0818 117.362 96.0582 117.37C96.0057 117.383 95.9782 117.392 95.9782 117.392L88.8444 108.829C88.8444 108.829 101.75 100.226 101.839 99.86C101.884 99.6768 101.58 99.3898 101.111 99.158Z" fill="#664117"></path></g><path fill-rule="evenodd" clip-rule="evenodd" d="M469.24 202.981C468.803 202.719 468.079 202.85 467.622 203.295C466.012 204.928 464.366 206.54 462.729 208.13C462.264 208.584 462.231 209.215 462.667 209.506L462.711 209.532C463.137 209.789 463.836 209.656 464.277 209.243C465.921 207.616 467.567 205.99 469.204 204.358C469.669 203.904 469.675 203.285 469.256 202.991C469.247 202.986 469.24 202.981 469.24 202.981ZM453.918 217.557C453.499 217.305 452.826 217.412 452.375 217.819C448.748 221.077 445.11 224.203 441.552 227.142C441.028 227.574 440.936 228.183 441.313 228.536C441.349 228.571 441.391 228.596 441.434 228.622C441.835 228.864 442.459 228.782 442.917 228.421C446.525 225.457 450.205 222.287 453.84 219.006C454.34 218.546 454.405 217.934 453.986 217.612C453.969 217.588 453.943 217.572 453.918 217.557ZM431.655 235.819C431.288 235.597 430.689 235.652 430.23 235.985C426.284 238.884 422.301 241.664 418.374 244.229C417.823 244.575 417.605 245.206 417.907 245.61C417.951 245.705 418.02 245.76 418.114 245.817C418.464 246.028 419.02 245.989 419.463 245.688C423.448 243.089 427.498 240.28 431.462 237.35C431.996 236.951 432.153 236.326 431.818 235.944C431.766 235.899 431.714 235.854 431.655 235.819ZM407.256 251.657C406.94 251.467 406.45 251.476 406.007 251.722C401.764 254.096 397.443 256.313 393.16 258.303C392.565 258.581 392.22 259.191 392.397 259.657C392.459 259.805 392.562 259.923 392.699 260.005C392.989 260.18 393.429 260.182 393.822 259.989C398.18 257.975 402.569 255.716 406.896 253.296C407.489 252.961 407.758 252.347 407.514 251.91C407.453 251.804 407.359 251.719 407.256 251.657ZM380.928 263.869C380.664 263.71 380.292 263.68 379.906 263.821C375.414 265.464 370.861 266.931 366.344 268.171C365.722 268.35 365.242 268.906 365.293 269.421C365.314 269.67 365.435 269.853 365.64 269.977C365.87 270.115 366.167 270.156 366.545 270.051C371.145 268.806 375.8 267.303 380.342 265.621C380.963 265.386 381.383 264.794 381.257 264.289C381.212 264.109 381.091 263.967 380.928 263.869ZM212.117 185.232C211.665 184.959 210.932 185.128 210.501 185.588C210.061 186.057 210.063 186.667 210.516 186.94C211.745 187.694 212.958 188.48 214.121 189.291C216.001 190.576 217.867 191.991 219.683 193.487C219.709 193.516 219.743 193.537 219.777 193.557C220.187 193.804 220.844 193.701 221.294 193.293C221.784 192.841 221.858 192.235 221.456 191.909C219.613 190.384 217.697 188.939 215.807 187.635C214.611 186.803 213.372 186.001 212.117 185.232ZM201.693 179.839C201.668 179.824 201.633 179.803 201.608 179.788C197.957 178.212 194.081 176.805 190.09 175.648C189.556 175.492 188.851 175.788 188.513 176.304C188.225 176.754 188.318 177.225 188.693 177.451C188.762 177.493 188.83 177.52 188.897 177.533C192.82 178.663 196.628 180.043 200.203 181.6C200.696 181.815 201.436 181.581 201.807 181.085C202.163 180.621 202.112 180.091 201.693 179.839ZM229.55 199.402C229.174 199.176 228.576 199.244 228.1 199.609C227.575 200.013 227.433 200.634 227.794 201.003C230.168 203.458 232.562 206.146 235.098 209.197C235.149 209.27 235.201 209.314 235.277 209.36C235.645 209.582 236.218 209.525 236.67 209.202C237.22 208.827 237.395 208.199 237.068 207.808C234.523 204.71 232.103 202.02 229.712 199.528C229.661 199.483 229.61 199.438 229.55 199.402ZM353.449 271.399C353.253 271.281 352.981 271.228 352.669 271.29C349.233 271.893 345.711 272.416 342.237 272.803C341.233 272.918 340.186 272.994 339.115 273.054C338.49 273.08 337.898 273.54 337.773 274.102C337.72 274.444 337.843 274.74 338.107 274.899C338.261 274.991 338.465 275.045 338.692 275.03C339.815 274.972 340.92 274.876 341.974 274.777C345.525 274.367 349.08 273.85 352.601 273.215C353.241 273.102 353.765 272.587 353.789 272.048C353.801 271.764 353.67 271.533 353.449 271.399ZM108.061 132.512C107.617 132.245 106.884 132.371 106.444 132.826C105.979 133.294 105.99 133.909 106.425 134.186C109.56 136.198 112.447 138.547 115.001 141.179C115.061 141.229 115.112 141.274 115.163 141.305C115.53 141.526 116.146 141.467 116.605 141.106C117.138 140.694 117.272 140.082 116.919 139.717C114.296 137.002 111.306 134.578 108.061 132.512ZM178.09 172.948C177.997 172.892 177.894 172.844 177.767 172.823C173.54 172.118 169.164 171.629 164.749 171.366C164.157 171.328 163.497 171.747 163.304 172.295C163.158 172.692 163.299 173.027 163.607 173.212C163.718 173.278 163.87 173.329 164.065 173.335C168.386 173.584 172.678 174.078 176.812 174.782C177.405 174.876 178.083 174.509 178.336 173.983C178.549 173.557 178.432 173.154 178.09 172.948ZM243.666 216.269C243.307 216.053 242.768 216.088 242.308 216.392C241.749 216.776 241.548 217.403 241.851 217.806C243.303 219.706 244.737 221.636 246.173 223.553L248.412 226.564C248.472 226.642 248.549 226.702 248.635 226.754C248.985 226.964 249.524 226.915 249.967 226.614C250.527 226.259 250.744 225.614 250.433 225.205L248.194 222.209C246.759 220.292 245.341 218.358 243.88 216.453C243.82 216.375 243.751 216.32 243.666 216.269ZM123.443 148.286C123.11 148.085 122.612 148.104 122.16 148.358C121.566 148.706 121.332 149.313 121.576 149.75C123.393 152.812 124.877 156.115 125.983 159.565C126.037 159.722 126.149 159.859 126.294 159.946C126.567 160.11 126.965 160.128 127.384 159.952C127.988 159.706 128.366 159.103 128.215 158.624C127.098 155.071 125.554 151.676 123.684 148.528C123.623 148.422 123.537 148.342 123.443 148.286ZM326.511 272.609C326.409 272.547 326.273 272.506 326.13 272.49C322.15 271.99 317.973 271.246 313.723 270.251C313.147 270.126 312.468 270.437 312.164 270.974C311.918 271.421 312.019 271.856 312.378 272.072C312.454 272.118 312.54 272.156 312.633 272.184C316.966 273.188 321.212 273.945 325.275 274.44C325.876 274.525 326.538 274.134 326.765 273.606C326.944 273.188 326.827 272.799 326.511 272.609ZM256.906 233.743C256.547 233.527 255.991 233.58 255.54 233.89C254.964 234.263 254.787 234.877 255.099 235.286C257.628 238.457 259.956 241.217 262.221 243.73C262.264 243.77 262.316 243.829 262.375 243.865C262.759 244.096 263.332 244.026 263.817 243.695C264.342 243.291 264.5 242.68 264.164 242.298C261.909 239.818 259.598 237.068 257.103 233.917C257.043 233.854 256.982 233.789 256.906 233.743ZM302.061 266.993C302.009 266.962 301.941 266.935 301.882 266.913C297.922 265.608 294.155 264.142 290.724 262.589C290.239 262.366 289.516 262.595 289.127 263.08C288.755 263.549 288.806 264.092 289.225 264.344C289.25 264.359 289.268 264.37 289.285 264.38C289.293 264.385 289.301 264.39 289.301 264.39C292.793 265.967 296.602 267.444 300.629 268.79C301.164 268.974 301.87 268.692 302.216 268.167C302.52 267.713 302.453 267.23 302.061 266.993ZM271.781 250.015C271.38 249.773 270.765 249.874 270.306 250.248C269.782 250.68 269.699 251.295 270.06 251.651C272.754 254.077 275.546 256.312 278.343 258.302L278.975 258.738L279.01 258.759C279.445 259.021 280.152 258.879 280.6 258.443C281.049 257.993 281.064 257.379 280.628 257.089L280.046 256.669C277.293 254.734 274.56 252.52 271.909 250.12C271.866 250.08 271.832 250.046 271.781 250.015ZM151.842 171.401C151.688 171.309 151.493 171.26 151.265 171.275C146.681 171.478 142.05 171.916 137.449 172.578C136.809 172.677 136.243 173.181 136.193 173.719C136.173 174.025 136.304 174.27 136.551 174.419C136.73 174.527 136.985 174.569 137.271 174.534C141.788 173.876 146.334 173.443 150.809 173.258C151.442 173.224 152.042 172.768 152.159 172.216C152.238 171.862 152.115 171.566 151.842 171.401ZM130.092 169.144C129.861 169.005 129.531 168.972 129.195 169.06C128.564 169.22 128.092 169.781 128.135 170.305C128.452 174.041 128.381 177.863 127.914 181.68C127.869 181.999 128 182.258 128.248 182.407C128.418 182.51 128.664 182.561 128.942 182.535C129.575 182.459 130.124 181.973 130.207 181.414C130.698 177.471 130.766 173.538 130.422 169.689C130.401 169.455 130.288 169.262 130.092 169.144ZM124.353 175.436C124.131 175.302 123.834 175.262 123.498 175.35C118.165 176.708 113.639 178.302 109.625 180.261C109.031 180.567 108.703 181.16 108.905 181.628C108.974 181.753 109.061 181.86 109.197 181.942C109.496 182.122 109.935 182.124 110.355 181.933C114.159 180.084 118.5 178.544 123.614 177.235C124.237 177.083 124.734 176.524 124.7 176.005C124.679 175.757 124.557 175.559 124.353 175.436ZM127.077 192.531C126.957 192.459 126.804 192.409 126.643 192.395C126.035 192.374 125.382 192.785 125.181 193.328C123.616 197.703 121.54 201.3 118.846 204.302C118.415 204.776 118.441 205.36 118.893 205.633L118.911 205.643C119.371 205.906 120.103 205.724 120.534 205.25C123.47 202.004 125.719 198.139 127.387 193.453C127.517 193.059 127.384 192.716 127.077 192.531ZM99.0458 188.54C98.6019 188.272 97.8699 188.441 97.4293 188.896L97.1143 189.232C93.961 192.596 91.8347 196.231 91.0161 199.725C90.9292 200.103 90.8521 200.485 90.7823 200.858C90.7284 201.186 90.8759 201.442 91.1319 201.596C91.3027 201.699 91.5319 201.754 91.7674 201.716C92.4005 201.653 92.984 201.159 93.0587 200.624C93.1041 200.29 93.1654 199.969 93.2448 199.642C94.0034 196.539 95.9074 193.269 98.7616 190.224L99.0607 189.905C99.5003 189.451 99.4982 188.84 99.0629 188.55L99.0458 188.54ZM108.486 211.634C108.256 211.495 107.934 211.454 107.573 211.554C105.429 212.188 103.405 212.395 101.535 212.182C100.061 212.015 98.7113 211.561 97.5334 210.851C97.1322 210.61 96.7554 210.342 96.3957 210.042C96.3531 210.016 96.319 209.996 96.2763 209.97C95.8667 209.723 95.2177 209.831 94.7769 210.23C94.2766 210.65 94.1869 211.287 94.5893 211.613C95.0087 211.963 95.4623 212.277 95.9231 212.555C97.3315 213.403 98.9292 213.935 100.689 214.152C102.898 214.403 105.277 214.173 107.808 213.426C108.437 213.238 108.901 212.672 108.825 212.156C108.804 211.921 108.674 211.747 108.486 211.634Z" fill="#664117" fill-opacity="0.5"></path><defs><clipPath id="clip0_10638_25008"><rect width="35.3342" height="35.6287" fill="white" transform="translate(79.043 87.9219) rotate(26.3036)"></rect></clipPath></defs></svg>